<?xml version="1.0" standalone="no"?>
<!DOCTYPE svg PUBLIC "-//W3C//DTD SVG 20010904//EN"
 "http://www.w3.org/TR/2001/REC-SVG-20010904/DTD/svg10.dtd">
<svg version="1.0" xmlns="http://www.w3.org/2000/svg"
 width="50.000000pt" height="50.000000pt" viewBox="0 0 50.000000 50.000000"
 preserveAspectRatio="xMidYMid meet">

<g transform="translate(0.000000,50.000000) scale(0.100000,-0.100000)"
fill="#000000" stroke="none">
<path d="M167 486 c-55 -21 -103 -61 -134 -114 -24 -40 -28 -58 -28 -123 0
-67 4 -81 30 -125 99 -159 326 -164 425 -8 101 160 -4 368 -192 380 -39 3 -77
-1 -101 -10z m181 -153 c-3 -16 -16 -18 -98 -18 -82 0 -95 2 -98 18 -3 15 7
17 98 17 91 0 101 -2 98 -17z m2 -83 c0 -19 -7 -20 -100 -20 -93 0 -100 1
-100 20 0 19 7 20 100 20 93 0 100 -1 100 -20z m-2 -82 c3 -16 -7 -18 -97 -18
-78 0 -101 3 -101 13 0 25 13 28 104 25 77 -3 91 -6 94 -20z"/>
</g>
</svg>
